<?xml version="1.0" standalone="no"?><!DOCTYPE svg PUBLIC "-//W3C//DTD SVG 1.1//EN" "http://www.w3.org/Graphics/SVG/1.1/DTD/svg11.dtd"><svg class="icon" height="512" viewBox="0 0 1024 1024" version="1.1" xmlns="http://www.w3.org/2000/svg"><path d="M969.310817 983.533036C969.310817 1005.605924 950.916741 1024 928.843853 1024 906.770964 1024 888.376888 1005.605924 888.376888 983.533036L888.376888 979.854223 888.376888 976.175406C862.625183 799.592294 711.793777 667.154964 524.174223 663.476147L520.495406 663.476147 516.816594 663.476147C332.875853 667.154964 182.044447 792.234665 152.613924 968.817777L152.613924 979.854223 152.613924 983.533036C152.613924 1005.605924 134.219853 1024 112.146964 1024 90.074076 1024 71.68 1005.605924 71.68 983.533036L71.68 983.533036 71.68 983.533036 71.68 979.854223 71.68 968.817777C93.752888 803.271112 204.117335 670.833777 351.269924 615.651553 262.978371 560.469335 207.796147 461.141335 207.796147 347.098076 207.796147 174.193777 343.912294 30.72 516.816594 30.72 689.720888 30.72 825.837036 170.514964 825.837036 347.098076 825.837036 461.141335 770.654817 560.469335 682.363259 615.651553 829.515853 670.833777 939.880294 803.271112 961.953183 965.138964 961.953183 968.817777 965.632 972.496594 965.632 979.854223L969.310817 983.533036 969.310817 983.533036ZM759.618371 347.098076C759.618371 214.660741 652.932741 107.975112 520.495406 107.975112 388.058076 107.975112 281.372447 214.660741 281.372447 347.098076 281.372447 479.535406 388.058076 586.221036 520.495406 586.221036 652.932741 586.221036 759.618371 479.535406 759.618371 347.098076L759.618371 347.098076Z" /></svg>